<svg xmlns="http://www.w3.org/2000/svg" xmlns:xlink="http://www.w3.org/1999/xlink" xmlns:xodm="http://www.corel.com/coreldraw/odm/2003" xml:space="preserve" width="34.7443mm" height="22.0036mm" style="shape-rendering:geometricPrecision; text-rendering:geometricPrecision; image-rendering:optimizeQuality; fill-rule:evenodd; clip-rule:evenodd" viewBox="0 0 4292.24 2718.28"> <defs>  <style type="text/css">       .fil2 {fill:#006EBC}    .fil1 {fill:#848688;fill-rule:nonzero}    .fil0 {fill:#3B9041;fill-rule:nonzero}     </style> </defs> <g id="Camada_x0020_1">  <metadata id="CorelCorpID_0Corel-Layer"></metadata>  <g id="_2676451100928">   <path class="fil0" d="M633.3 1870.5l0 -418.31 662.69 0c159.49,0 316.74,-31.07 434.99,-144.51 111.16,-106.65 143.4,-245.37 143.4,-396.03 0,-404.65 -191.24,-493.35 -578.39,-493.35l-662.69 0 0 -418.3 662.69 0c664.47,0 996.7,303.73 996.7,911.65 0,291.25 -90.85,524.18 -272.12,697.87 -181.25,174.14 -422.64,260.99 -724.59,260.99l-662.69 0z"></path>   <path class="fil1" d="M149.65 2700.5l0 -510.69 -149.65 0 0 -158.08 481.7 0 0 158.08 -149.65 0 0 510.69 -182.39 0zm421.05 0l0 -668.77 409.68 0 0 146.85 -231.95 0 0 115.99 218.71 0 0 143.11 -218.71 0 0 113.17 231.95 0 0 149.65 -409.68 0zm530.19 0l0 -668.77 182.39 0 0 512.57 226.36 0 0 156.2 -408.75 0zm497.76 0l0 -668.77 409.68 0 0 146.85 -231.95 0 0 115.99 218.71 0 0 143.11 -218.71 0 0 113.17 231.95 0 0 149.65 -409.68 0zm1014.7 -642.58l0 199.23c-24.94,-27.75 -49.9,-48.02 -74.68,-60.95 -24.78,-12.93 -51.44,-19.48 -79.66,-19.48 -52.38,0 -94.78,17.93 -127.21,53.63 -32.43,35.69 -48.64,82.3 -48.64,139.83 0,53.63 16.52,98.05 49.58,133.29 33.05,35.38 75.14,53 126.27,53 28.22,0 54.88,-6.39 79.66,-19.33 24.78,-12.77 49.74,-33.19 74.68,-61.1l0 199.23c-28.85,14.02 -57.68,24.63 -86.22,31.64 -28.69,7.02 -57.52,10.45 -86.82,10.45 -36.48,0 -70.16,-4.36 -101.02,-12.95 -30.87,-8.72 -59.25,-21.98 -85.12,-39.59 -49.88,-33.52 -87.92,-75.61 -114.11,-126.43 -26.19,-50.97 -39.29,-108.18 -39.29,-171.79 0,-51.13 8.26,-97.58 24.94,-139.51 16.52,-41.94 41.62,-79.82 74.98,-113.96 31.65,-32.58 67.35,-56.9 107.11,-73.11 39.74,-16.06 83.87,-24.16 132.51,-24.16 29.3,0 58.14,3.43 86.82,10.45 28.54,7 57.37,17.6 86.22,31.64zm789.43 309.6c0,48.17 -8.89,93.22 -26.51,135.16 -17.62,42.09 -43.34,79.66 -77.16,112.86 -34.15,32.89 -73.11,58.15 -116.92,76.07 -43.81,17.76 -89.33,26.66 -136.41,26.66 -47.86,0 -93.69,-8.89 -137.34,-26.66 -43.65,-17.93 -81.99,-43.19 -115.2,-76.07 -34.45,-33.21 -60.48,-70.94 -78.41,-113.33 -17.78,-42.25 -26.66,-87.14 -26.66,-134.69 0,-47.86 8.88,-92.75 26.66,-135 17.93,-42.09 43.95,-79.82 78.41,-113.01 33.21,-32.9 71.55,-58.15 115.2,-76.07 43.65,-17.78 89.48,-26.66 137.34,-26.66 47.4,0 93.22,8.88 137.19,26.66 43.95,17.93 82.62,43.18 116.14,76.07 33.52,32.89 59.09,70.45 77.01,112.86 17.76,42.24 26.66,87.29 26.66,135.15zm-357.31 196.43c50.51,0 92.3,-18.56 125.34,-55.65 33.05,-37.26 49.56,-84.18 49.56,-140.77 0,-55.96 -16.68,-102.73 -50.19,-140.3 -33.52,-37.41 -75.14,-56.12 -124.71,-56.12 -50.5,0 -92.28,18.72 -125.33,55.98 -33.06,37.26 -49.58,84.18 -49.58,140.45 0,57.21 16.21,104.29 48.8,141.08 32.58,36.95 74.67,55.34 126.11,55.34zm1238.39 136.56l-170.4 0 -39.12 -289.18c-2.8,-20.42 -5.3,-43.03 -7.63,-68.12 -2.19,-24.94 -4.37,-52.23 -6.08,-81.7 -4.37,28.38 -12.63,63.61 -25.1,106.01 -2.8,8.73 -4.83,15.28 -6.08,19.64l-90.73 313.34 -121.6 0 -90.73 -313.34c-1.25,-4.36 -3.11,-10.91 -5.61,-19.64 -12.79,-42.4 -21.05,-77.47 -25.1,-105.54 -1.72,25.25 -3.89,50.35 -6.39,75.14 -2.35,24.79 -5.3,49.58 -8.57,74.21l-39.29 289.18 -169.46 0 103.2 -668.77 180.37 0 100.86 344.83c0.62,2.5 1.87,6.39 3.74,12.01 9.35,30.71 15.28,57.05 17.76,79.03 1.25,-12 3.43,-25.09 6.87,-39.59 3.27,-14.49 7.94,-31.96 13.71,-52.38l101.8 -343.89 180.83 0 102.73 668.77z"></path>   <path class="fil0" d="M4292.24 1870.5l-418.3 0 0 -873.8c0,-159.49 -31.08,-316.74 -144.53,-434.99 -106.65,-111.16 -245.36,-143.42 -396.03,-143.42 -404.64,0 -493.34,191.24 -493.34,578.4l0 873.8 -418.31 0 0 -873.8c0,-664.47 303.73,-996.7 911.65,-996.7 291.27,0 524.07,90.96 697.88,272.1 174.02,181.38 260.97,422.65 260.97,724.6l0 873.8z"></path>   <path class="fil2" d="M211.1 673.89l0 0c116.1,0 211.1,95 211.1,211.1l0 774.41c0,116.1 -95,211.1 -211.1,211.1l0 0c-116.11,0 -211.1,-95 -211.1,-211.1l0 -774.41c0,-116.11 94.99,-211.1 211.1,-211.1z"></path>   <circle class="fil2" cx="211.1" cy="211.1" r="211.1"></circle>   <circle class="fil2" cx="3356.99" cy="1099.81" r="211.1"></circle>  </g> </g></svg>